<!DOCTYPE svg PUBLIC "-//W3C//DTD SVG 1.1//EN" "http://www.w3.org/Graphics/SVG/1.1/DTD/svg11.dtd">

<!-- Uploaded to: SVG Repo, www.svgrepo.com, Transformed by: SVG Repo Mixer Tools -->
<svg width="126px" height="126px" viewBox="-112.64 -112.64 481.28 481.28" xmlns="http://www.w3.org/2000/svg" preserveAspectRatio="xMinYMin meet" fill="#000000">

<g id="SVGRepo_bgCarrier" stroke-width="0">

<path transform="translate(-112.64, -112.64), scale(15.04)" d="M16,29.332427574528587C17.906527761184556,28.66837402810794,18.108652601804685,25.695716233755736,19.918699504784556,24.801543193626355C21.624655223015704,23.958791766364687,24.38261330646826,26.10276237323014,25.561343063887122,24.609071963643064C26.787073985823394,23.05582151645007,24.042507350694507,20.693617291592055,24.647153193375154,18.80963038887086C25.248507246164476,16.93590021596404,28.674299380118182,16.625667100640623,28.75457300501091,14.659440358168089C28.828663351308265,12.844667193961618,26.029820655539265,12.296653842648611,24.97337146019887,10.819221571915682C24.03293598545217,9.504033179458125,24.151497225529432,7.524758108159274,22.91120002876942,6.487549231641918C21.672837061719264,5.451957870853473,19.90340931966452,5.203363350708881,18.28931429934666,5.229623017234154C16.77144413573771,5.254317204269799,15.467706879955525,6.2125245640755855,14.008851177014943,6.632381294931902C12.646467013748996,7.0244736449883725,11.04395217517677,6.76789120576875,9.924027577845536,7.6371414088651495C8.804104745191369,8.506390242274785,9.094748300009211,10.526423977639721,7.937248375236782,11.344968179033858C5.707012974273336,12.922114074366394,2.012219216665385,12.146312982124737,0.41456751363211986,14.361905037235461C-0.8703502173806148,16.1438037520165,-0.30279037246092266,19.14380152429701,1.0862756833747547,20.84576277465918C2.6140040593404876,22.71762083788723,5.855936963896234,21.94284641547315,7.7869989026908275,23.39501940383977C9.253942662640721,24.49817205827091,9.155381403789766,26.95704511641215,10.64284263766664,28.03237243939241C12.148457125939403,29.12082325763314,14.245529253982452,29.943518870812863,16,29.332427574528587" fill="#fff" strokewidth="0"/>

</g>

<g id="SVGRepo_tracerCarrier" stroke-linecap="round" stroke-linejoin="round"/>

<g id="SVGRepo_iconCarrier">

<path d="M0 222.991C0 241.223 14.779 256 33.009 256H222.99C241.223 256 256 241.221 256 222.991V33.01C256 14.777 241.221 0 222.991 0H33.01C14.777 0 0 14.779 0 33.009V222.99z" fill="#563D7C"/>

<path d="M106.158 113.238V76.985h31.911c3.04 0 5.97.253 8.792.76 2.822.506 5.319 1.41 7.49 2.713 2.17 1.303 3.907 3.112 5.21 5.427 1.302 2.316 1.954 5.283 1.954 8.9 0 6.513-1.954 11.217-5.862 14.111-3.907 2.895-8.9 4.342-14.979 4.342h-34.516zM72.075 50.5v155h75.112c6.947 0 13.713-.868 20.298-2.605 6.585-1.737 12.446-4.414 17.584-8.032 5.137-3.618 9.226-8.286 12.265-14.002 3.04-5.717 4.559-12.483 4.559-20.298 0-9.697-2.352-17.982-7.055-24.856-4.704-6.875-11.832-11.687-21.384-14.437 6.947-3.328 12.194-7.598 15.74-12.808 3.545-5.21 5.318-11.722 5.318-19.538 0-7.236-1.194-13.314-3.582-18.235-2.388-4.92-5.753-8.864-10.095-11.831-4.341-2.967-9.551-5.102-15.63-6.404-6.078-1.303-12.808-1.954-20.189-1.954H72.075zm34.083 128.515v-42.549h37.121c7.381 0 13.315 1.7 17.802 5.102 4.486 3.401 6.73 9.081 6.73 17.041 0 4.053-.688 7.381-2.063 9.986-1.375 2.605-3.22 4.668-5.536 6.187-2.315 1.52-4.993 2.605-8.032 3.257-3.04.65-6.223.976-9.552.976h-36.47z" fill="#FFF"/>

</g>

</svg>