<!DOCTYPE svg PUBLIC "-//W3C//DTD SVG 1.1//EN" "http://www.w3.org/Graphics/SVG/1.1/DTD/svg11.dtd">

<!-- Uploaded to: SVG Repo, www.svgrepo.com, Transformed by: SVG Repo Mixer Tools -->
<svg width="800px" height="800px" viewBox="-3.2 -3.2 38.40 38.40" fill="white" xmlns="http://www.w3.org/2000/svg" transform="rotate(0)matrix(1, 0, 0, 1, 0, 0)" stroke="#000000" stroke-width="0.00032">

<g id="SVGRepo_bgCarrier" stroke-width="0">

<path transform="translate(-3.2, -3.2), scale(1.2)" d="M16,28.364675652235746C18.10272128671826,28.462416732674843,19.084494949683688,25.474294518102155,21.075518725439906,24.791056307229148C23.776515418386225,23.8641843278317,27.50010012734456,25.857735137630705,29.43242573158402,23.75521461199969C31.21314532105271,21.817653220153026,29.227982612855786,18.630546245750086,29.15495623089373,16C29.084265632739747,13.453593036001568,30.915246293450856,10.178844940992999,29.008634390002864,8.489461433142427C26.83630615120279,6.564635781089097,22.963026259015525,9.744488217216997,20.452115064486865,8.28871050716597C17.93327774135346,6.828337381165973,18.69467844692553,2.050003335085897,16.000000000000004,0.9473070055246353C13.598641131331508,-0.0353592615623779,10.866517810505325,1.957570060063708,8.79341129586101,3.5178222151793044C6.834336530780489,4.99225230483338,5.628457495839185,7.203645157811721,4.681894661619097,9.465488836169236C3.8141368017170123,11.539025382088823,3.9401264407140153,13.78293909567571,3.569723339751363,15.999999999999998C3.1206531265486808,18.687925696088122,0.42615111563076247,21.918751042608385,2.2653682654756704,23.929693329147984C4.309924299229781,26.165146704418284,8.30692160740923,23.400645112233036,11.189785212278363,24.33153640765301C13.21549241059942,24.98564754728574,13.873598970786327,28.265833863095676,16,28.364675652235746" fill="#fff" strokewidth="0"/>

</g>

<g id="SVGRepo_tracerCarrier" stroke-linecap="round" stroke-linejoin="round"/>

<g id="SVGRepo_iconCarrier"> <path d="M6 28L4 3H28L26 28L16 31L6 28Z" fill="#1172B8"/> <path d="M26 5H16V29.5L24 27L26 5Z" fill="#33AADD"/> <path d="M19.5 17.5H9.5L9 14L17 11.5H9L8.5 8.5H24L23.5 12L17 14.5H23L22 24L16 26L10 24L9.5 19H12.5L13 21.5L16 22.5L19 21.5L19.5 17.5Z" fill="white"/> </g>

</svg>