<!DOCTYPE svg PUBLIC "-//W3C//DTD SVG 1.1//EN" "http://www.w3.org/Graphics/SVG/1.1/DTD/svg11.dtd">

<!-- Uploaded to: SVG Repo, www.svgrepo.com, Transformed by: SVG Repo Mixer Tools -->
<svg width="800px" height="800px" viewBox="-3.2 -3.2 38.40 38.40" fill="none" xmlns="http://www.w3.org/2000/svg">

<g id="SVGRepo_bgCarrier" stroke-width="0">

<path transform="translate(-3.2, -3.2), scale(1.2)" d="M16,27.479285687208176C18.668609875525917,27.54619638357134,21.132058514573686,30.11971186660598,23.664345825711884,29.275036376911427C26.163822878982927,28.441305151127622,27.626579515585654,25.723423181855008,28.601962607292453,23.275746503637897C29.516382093989797,20.981055042686112,29.618948277674892,18.37909546761682,28.954360695348846,16C28.35987778129258,13.871865734450287,26.70471303874838,12.265852113118981,25.101615838264998,10.745179645717148C23.80867377095551,9.51871539694278,21.890285409941658,9.272455809911225,20.584100690980755,8.06010469620974C18.753884564420723,6.361367506025318,18.448677811028162,2.7866657986153847,16,2.297405040926403C13.71939031102854,1.8417253188356884,11.936225148053856,4.419453860671015,10.220357547203703,5.989365622174798C8.766766154801884,7.319311022520151,7.856509780666959,9.024511559768742,6.817726682772417,10.69861202852593C5.745026367810145,12.427373406867723,4.2374785113134665,13.978372205803929,4.0087364498111935,15.999999999999998C3.7711330591589878,18.099944432532588,4.831655809322954,20.04928024183869,5.534202301370936,22.042431118587643C6.378528261305988,24.43781568936636,6.300531421416737,27.725330407772717,8.554386578500264,28.896180739554275C10.835188473214034,30.081029573677764,13.430608297104458,27.41486271191787,16,27.479285687208176" fill="#fff" strokewidth="0"/>

</g>

<g id="SVGRepo_tracerCarrier" stroke-linecap="round" stroke-linejoin="round"/>

<g id="SVGRepo_iconCarrier"> <path d="M6 28L4 3H28L26 28L16 31L6 28Z" fill="#E44D26"/> <path d="M26 5H16V29.5L24 27L26 5Z" fill="#F16529"/> <path d="M9.5 17.5L8.5 8H24L23.5 11H11.5L12 14.5H23L22 24L16 26L10 24L9.5 19H12.5L13 21.5L16 22.5L19 21.5L19.5 17.5H9.5Z" fill="white"/> </g>

</svg>