<!DOCTYPE svg PUBLIC "-//W3C//DTD SVG 1.1//EN" "http://www.w3.org/Graphics/SVG/1.1/DTD/svg11.dtd">

<!-- Uploaded to: SVG Repo, www.svgrepo.com, Transformed by: SVG Repo Mixer Tools -->
<svg width="800px" height="800px" viewBox="-3.2 -3.2 38.40 38.40" xmlns="http://www.w3.org/2000/svg" fill="#000000">

<g id="SVGRepo_bgCarrier" stroke-width="0">

<path transform="translate(-3.2, -3.2), scale(1.2)" d="M16,31.611588555905556C18.44718284746416,31.897207339467826,20.237276409581536,29.251828809687495,22.122669984179844,27.66577299499818C23.718403843026778,26.32338857212773,25.60798188805898,25.0375543052328,26.19376910085436,23.036250772941614C26.763807159201072,21.088753192266058,24.59396388056442,19.05174656779409,25.209948086205166,17.118290162001095C26.046466262274212,14.492619874886223,30.720788855979237,13.330473236839051,30.144487198564637,10.635703577815676C29.616747715205378,8.168009221347596,25.53374399704496,8.864897525801934,23.226366089776622,7.843118884270078C21.62032849115443,7.131915526293909,20.202229016245752,6.199332053603693,18.58398651044042,5.516354618405735C16.708723053334175,4.724901778883705,14.95124829456838,3.563954342257798,12.9170784513094,3.492095595251765C10.625939698669347,3.411159207109314,7.918627165219812,3.4317036923470807,6.328761637018866,5.08342857410339C4.719384058388819,6.755424691770008,5.516362039032085,9.55533375838598,4.921705349808171,11.798557026375729C4.394413762252421,13.787658939555287,3.177189564754369,15.524862644482013,3.01699027463928,17.576422789047186C2.8376994841608694,19.87247441180307,2.436594609119188,22.58043691686012,3.9438092567900203,24.321787613232562C5.478794996766332,26.09522346151081,8.57703538429466,25.105476471499212,10.584133072495673,26.319072285560537C12.7759800964572,27.64437717180486,13.455897285045427,31.314657934862765,16,31.611588555905556" fill="#fff" strokewidth="0"/>

</g>

<g id="SVGRepo_tracerCarrier" stroke-linecap="round" stroke-linejoin="round"/>

<g id="SVGRepo_iconCarrier">

<title>file_type_tailwind</title>

<path d="M9,13.7q1.4-5.6,7-5.6c5.6,0,6.3,4.2,9.1,4.9q2.8.7,4.9-2.1-1.4,5.6-7,5.6c-5.6,0-6.3-4.2-9.1-4.9Q11.1,10.9,9,13.7ZM2,22.1q1.4-5.6,7-5.6c5.6,0,6.3,4.2,9.1,4.9q2.8.7,4.9-2.1-1.4,5.6-7,5.6c-5.6,0-6.3-4.2-9.1-4.9Q4.1,19.3,2,22.1Z" style="fill:#44a8b3"/>

</g>

</svg>